<?xml version="1.0" encoding="UTF-8"?>
<!DOCTYPE svg PUBLIC "-//W3C//DTD SVG 1.1//EN" "http://www.w3.org/Graphics/SVG/1.1/DTD/svg11.dtd">
<!-- Creator: CorelDRAW -->
<svg xmlns="http://www.w3.org/2000/svg" xml:space="preserve" width="100%" height="100%" version="1.1" style="shape-rendering:geometricPrecision; text-rendering:geometricPrecision; image-rendering:optimizeQuality; fill-rule:evenodd; clip-rule:evenodd"
viewBox="0 0 13297.21 7991.63"
 xmlns:xlink="http://www.w3.org/1999/xlink"
 xmlns:xodm="http://www.corel.com/coreldraw/odm/2003">
 <defs>
  <style type="text/css">
   <![CDATA[
    .fil0 {fill:black}
    .fil1 {fill:#ED3237}
   ]]>
  </style>
 </defs>
 <g id="Camada_x0020_1">
  <metadata id="CorelCorpID_0Corel-Layer"/>
  <path class="fil0" d="M4656.04 418.54c807.08,-15.02 1883.78,-177.2 1855.59,747.22 -26.99,884.04 -1082.55,761.83 -1855.49,735.19l-0.08 -1482.41 -0.02 0zm-413.12 3063.25l413.89 0.44 4.39 -1226.87c934.23,-48.29 924.33,-35.47 1532.99,766.28 139.15,183.31 207.76,298.55 345.15,460.9 144.27,-0.37 290.01,2.02 434.03,-1.02l-942.31 -1240.86c278.3,-242.59 561.75,-199.63 774.59,-620.63 168.77,-333.79 131.33,-820.17 -78.72,-1112.64 -429.12,-597.47 -1278.66,-384.55 -2483.06,-427.67l-0.91 3402.09 -0.04 -0.02z"/>
  <path class="fil0" d="M3185.33 3010.21c-73.65,-68.74 -183.37,-150.9 -284.94,-213.01 -898.89,809.96 -2413.92,311.12 -2478.65,-955.19 -33.75,-659.58 358.2,-1135.45 798.48,-1337.37 742.43,-340.41 1154.25,-24.83 1680.19,207.29 77.87,-83.89 163.09,-182.11 221.11,-280.97 -945.82,-910.77 -3236.51,-358.42 -3117.01,1471.95 50.57,775.45 577.27,1328.28 1169.5,1556.01 488.31,187.84 1188.9,143.08 1639.33,-117.06 188.87,-128.56 257.27,-167.7 372.01,-331.73l-0.02 0.08z"/>
  <path class="fil0" d="M9414.5 3481.75l445.31 1.42c176.52,-454.52 487.75,-1003.64 715.57,-1485.24 120.09,-253.92 220.37,-466.06 350.27,-723.02 48.52,-95.94 364.67,-702.18 428.35,-758.18l1455.67 2965.98 442.12 -0.52c-260.53,-584.3 -566.55,-1143.81 -841.6,-1704.59 -149.35,-304.49 -300.96,-524.25 -451.42,-845.91 -137.43,-293.72 -282.71,-646.54 -462.7,-856.23l-341.19 2.01c-6.15,0.05 -208.42,180.48 -480.18,775.62l-1260.18 2628.61 -0.02 0.05z"/>
  <path class="fil0" d="M8470.93 7978.81l451.33 7.57 1301.29 -2818.61c292.66,477.93 1230.27,2427.27 1474.66,2821.97l355.66 1.89 -1626.64 -3407.51 -368.92 -0.25 -1587.36 3394.9 -0.02 0.04z"/>
  <path class="fil0" d="M7175.2 7984.45l1588.34 -3406.6 -417.37 0.25c-450.69,876.47 -857.87,1982.04 -1296.6,2765.5l-1316.26 -2765.62 -432.71 -0.04c92.27,349.24 974.55,2095.15 1243.27,2682.56 112.35,245.6 230.84,482.5 356.34,721.29l274.99 2.66z"/>
  <polygon class="fil0" points="285.63,4917.72 1513.67,4923.95 1515.56,7984.89 1920.6,7984.89 1930.23,4926.45 3143.1,4920.55 3157.87,4583.83 277.19,4580.18 "/>
  <polygon class="fil0" points="8208.08,600.69 8203.78,3482.98 8618.49,3482.65 8622.67,77.6 8211,77.89 "/>
  <polygon class="fil0" points="4130.85,7983.26 4537.46,7984.85 4542.71,4584.19 4131.83,4583.45 "/>
  <ellipse class="fil1" cx="12998.37" cy="7655.36" rx="298.84" ry="289.11"/>
 </g>
</svg>
